{"accessors":[{"bufferView":0,"byteOffset":0,"componentType":5126,"count":1212,"max":[2,14.5087003707886,104.660003662109],"min":[-2,-11.386191368103,59],"normalized":false,"type":"VEC3"},{"bufferView":1,"byteOffset":0,"componentType":5126,"count":1212,"max":[1,0.870981454849243,0.999996364116669,1],"min":[-1,-0.10124074667692,-0.00001525902189,1],"normalized":false,"type":"VEC4"},{"bufferView":2,"byteOffset":0,"componentType":5126,"count":1212,"max":[1,0.999996423721313,1],"min":[-1,-0.99999648332596,-1],"normalized":false,"type":"VEC3"},{"bufferView":3,"byteOffset":0,"componentType":5126,"count":1212,"max":[1,1],"min":[0,0],"normalized":false,"type":"VEC2"},{"bufferView":4,"byteOffset":0,"componentType":5123,"count":1212,"max":[1211],"min":[0],"normalized":false,"type":"SCALAR"}],"asset":{"generator":"Godot Engine v4.3.stable.official@77dcf97d82cbfe4e4615475fa52ca03da645dbd8","version":"2.0"},"bufferViews":[{"buffer":0,"byteLength":14544,"byteOffset":0,"byteStride":12,"target":34962},{"buffer":0,"byteLength":19392,"byteOffset":14544,"byteStride":16,"target":34962},{"buffer":0,"byteLength":14544,"byteOffset":33936,"byteStride":12,"target":34962},{"buffer":0,"byteLength":9696,"byteOffset":48480,"byteStride":8,"target":34962},{"buffer":0,"byteLength":2424,"byteOffset":58176,"target":34963}],"buffers":[{"byteLength":60600,"uri":"ramp0.bin"}],"extensionsUsed":["GODOT_single_root"],"materials":[{"extensions":{},"pbrMetallicRoughness":{"baseColorFactor":[0.99999988079071,0.99999988079071,0.99999988079071,1],"metallicFactor":0,"roughnessFactor":1}}],"meshes":[{"extras":{"targetNames":[]},"primitives":[{"attributes":{"NORMAL":2,"POSITION":0,"TANGENT":1,"TEXCOORD_0":3},"indices":4,"material":0,"mode":4}]}],"nodes":[{"children":[1],"name":"Node3D"},{"children":[2],"name":"Terrain"},{"mesh":0,"name":"CSGPolygon3D2"}],"scene":0,"scenes":[{"nodes":[0]}]}