{"accessors":[{"bufferView":0,"byteOffset":0,"componentType":5126,"count":2340,"max":[2,8.5062141418457,81.7100372314453],"min":[-2,-11.3377809524536,-5],"normalized":false,"type":"VEC3"},{"bufferView":1,"byteOffset":0,"componentType":5126,"count":2340,"max":[1,0.993069767951965,0.999976396560669,1],"min":[-1,-0.66838937997818,-0.00001525902189,1],"normalized":false,"type":"VEC4"},{"bufferView":2,"byteOffset":0,"componentType":5126,"count":2340,"max":[1,0.999976217746735,1],"min":[-1,-0.99997621774673,-1],"normalized":false,"type":"VEC3"},{"bufferView":3,"byteOffset":0,"componentType":5126,"count":2340,"max":[1,1],"min":[0,0],"normalized":false,"type":"VEC2"},{"bufferView":4,"byteOffset":0,"componentType":5123,"count":2340,"max":[2339],"min":[0],"normalized":false,"type":"SCALAR"}],"asset":{"generator":"Godot Engine v4.3.stable.official@77dcf97d82cbfe4e4615475fa52ca03da645dbd8","version":"2.0"},"bufferViews":[{"buffer":0,"byteLength":28080,"byteOffset":0,"byteStride":12,"target":34962},{"buffer":0,"byteLength":37440,"byteOffset":28080,"byteStride":16,"target":34962},{"buffer":0,"byteLength":28080,"byteOffset":65520,"byteStride":12,"target":34962},{"buffer":0,"byteLength":18720,"byteOffset":93600,"byteStride":8,"target":34962},{"buffer":0,"byteLength":4680,"byteOffset":112320,"target":34963}],"buffers":[{"byteLength":117000,"uri":"road_40.bin"}],"extensionsUsed":["GODOT_single_root"],"materials":[{"extensions":{},"pbrMetallicRoughness":{"baseColorFactor":[0.99999988079071,0.99999988079071,0.99999988079071,1],"metallicFactor":0,"roughnessFactor":1}}],"meshes":[{"extras":{"targetNames":[]},"primitives":[{"attributes":{"NORMAL":2,"POSITION":0,"TANGENT":1,"TEXCOORD_0":3},"indices":4,"material":0,"mode":4}]}],"nodes":[{"children":[1],"name":"Node3D"},{"children":[2],"name":"Terrain"},{"mesh":0,"name":"CSGPolygon3D2"}],"scene":0,"scenes":[{"nodes":[0]}]}