{"accessors":[{"bufferView":0,"byteOffset":0,"componentType":5126,"count":9756,"max":[2.0,16.0415000915527,153.886001586914],"min":[-2.0,-11.2374382019043,-5.0],"normalized":false,"type":"VEC3"},{"bufferView":1,"byteOffset":0,"componentType":5126,"count":9756,"max":[1.0,0.503942549228668,1.0,1.0],"min":[-1.0,-0.122742384672165,-0.0000152590218931437,1.0],"normalized":false,"type":"VEC4"},{"bufferView":2,"byteOffset":0,"componentType":5126,"count":9756,"max":[1.0,1.0,1.0],"min":[-1.0,-1.0,-1.0],"normalized":false,"type":"VEC3"},{"bufferView":3,"byteOffset":0,"componentType":5126,"count":9756,"max":[1.0,1.0],"min":[0.0,0.0],"normalized":false,"type":"VEC2"},{"bufferView":4,"byteOffset":0,"componentType":5123,"count":9756,"max":[9755.0],"min":[0.0],"normalized":false,"type":"SCALAR"}],"asset":{"generator":"Godot Engine v4.4.stable.official@4c311cbee68c0b66ff8ebb8b0defdd9979dd2a41","version":"2.0"},"bufferViews":[{"buffer":0,"byteLength":117072,"byteOffset":0,"byteStride":12,"target":34962},{"buffer":0,"byteLength":156096,"byteOffset":117072,"byteStride":16,"target":34962},{"buffer":0,"byteLength":117072,"byteOffset":273168,"byteStride":12,"target":34962},{"buffer":0,"byteLength":78048,"byteOffset":390240,"byteStride":8,"target":34962},{"buffer":0,"byteLength":19512,"byteOffset":468288,"target":34963}],"buffers":[{"byteLength":487800,"uri":"road_20.bin"}],"extensionsUsed":["GODOT_single_root"],"materials":[{}],"meshes":[{"extras":{"targetNames":[]},"primitives":[{"attributes":{"NORMAL":2,"POSITION":0,"TANGENT":1,"TEXCOORD_0":3},"indices":4,"material":0,"mode":4}]}],"nodes":[{"children":[1],"name":"Node3D"},{"children":[2],"name":"Terrain"},{"mesh":0,"name":"CSGPolygon3D2"}],"scene":0,"scenes":[{"nodes":[0]}]}