{"accessors":[{"bufferView":0,"byteOffset":0,"componentType":5126,"count":996,"max":[2,7.69183015823364,33.1809005737305],"min":[-2,-11.400239944458,-5],"normalized":false,"type":"VEC3"},{"bufferView":1,"byteOffset":0,"componentType":5126,"count":996,"max":[1,0.661711394786835,1,1],"min":[-1,-0.19129534065723,-0.00001525902189,1],"normalized":false,"type":"VEC4"},{"bufferView":2,"byteOffset":0,"componentType":5126,"count":996,"max":[1,1,1],"min":[-1,-1,-1],"normalized":false,"type":"VEC3"},{"bufferView":3,"byteOffset":0,"componentType":5126,"count":996,"max":[1,1],"min":[0,0],"normalized":false,"type":"VEC2"},{"bufferView":4,"byteOffset":0,"componentType":5123,"count":996,"max":[995],"min":[0],"normalized":false,"type":"SCALAR"}],"asset":{"generator":"Godot Engine v4.3.stable.official@77dcf97d82cbfe4e4615475fa52ca03da645dbd8","version":"2.0"},"bufferViews":[{"buffer":0,"byteLength":11952,"byteOffset":0,"byteStride":12,"target":34962},{"buffer":0,"byteLength":15936,"byteOffset":11952,"byteStride":16,"target":34962},{"buffer":0,"byteLength":11952,"byteOffset":27888,"byteStride":12,"target":34962},{"buffer":0,"byteLength":7968,"byteOffset":39840,"byteStride":8,"target":34962},{"buffer":0,"byteLength":1992,"byteOffset":47808,"target":34963}],"buffers":[{"byteLength":49800,"uri":"road_30.bin"}],"extensionsUsed":["GODOT_single_root"],"materials":[{"extensions":{},"pbrMetallicRoughness":{"baseColorFactor":[0.99999988079071,0.99999988079071,0.99999988079071,1],"metallicFactor":0,"roughnessFactor":1}}],"meshes":[{"extras":{"targetNames":[]},"primitives":[{"attributes":{"NORMAL":2,"POSITION":0,"TANGENT":1,"TEXCOORD_0":3},"indices":4,"material":0,"mode":4}]}],"nodes":[{"children":[1],"name":"Node3D"},{"children":[2],"name":"Terrain"},{"mesh":0,"name":"CSGPolygon3D2"}],"scene":0,"scenes":[{"nodes":[0]}]}