{"accessors":[{"bufferView":0,"byteOffset":0,"componentType":5126,"count":1428,"max":[2,6.75995445251465,49.5116996765137],"min":[-2,-12.7087526321411,-7.5478572845459],"normalized":false,"type":"VEC3"},{"bufferView":1,"byteOffset":0,"componentType":5126,"count":1428,"max":[1,0.304867088794708,0.999647736549377,1],"min":[-1,-0.4606012403965,-0.00001525902189,1],"normalized":false,"type":"VEC4"},{"bufferView":2,"byteOffset":0,"componentType":5126,"count":1428,"max":[1,0.999647736549377,1],"min":[-1,-0.9996485710144,-1],"normalized":false,"type":"VEC3"},{"bufferView":3,"byteOffset":0,"componentType":5126,"count":1428,"max":[1,1],"min":[0,0],"normalized":false,"type":"VEC2"},{"bufferView":4,"byteOffset":0,"componentType":5123,"count":1428,"max":[1427],"min":[0],"normalized":false,"type":"SCALAR"}],"asset":{"generator":"Godot Engine v4.3.stable.official@77dcf97d82cbfe4e4615475fa52ca03da645dbd8","version":"2.0"},"bufferViews":[{"buffer":0,"byteLength":17136,"byteOffset":0,"byteStride":12,"target":34962},{"buffer":0,"byteLength":22848,"byteOffset":17136,"byteStride":16,"target":34962},{"buffer":0,"byteLength":17136,"byteOffset":39984,"byteStride":12,"target":34962},{"buffer":0,"byteLength":11424,"byteOffset":57120,"byteStride":8,"target":34962},{"buffer":0,"byteLength":2856,"byteOffset":68544,"target":34963}],"buffers":[{"byteLength":71400,"uri":"road_5_20.bin"}],"extensionsUsed":["GODOT_single_root"],"materials":[{"extensions":{},"pbrMetallicRoughness":{"baseColorFactor":[0.99999988079071,0.99999988079071,0.99999988079071,1],"metallicFactor":0,"roughnessFactor":1}}],"meshes":[{"extras":{"targetNames":[]},"primitives":[{"attributes":{"NORMAL":2,"POSITION":0,"TANGENT":1,"TEXCOORD_0":3},"indices":4,"material":0,"mode":4}]}],"nodes":[{"children":[1],"name":"Node3D"},{"children":[2],"name":"Terrain"},{"mesh":0,"name":"CSGPolygon3D2"}],"scene":0,"scenes":[{"nodes":[0]}]}