{"accessors":[{"bufferView":0,"byteOffset":0,"componentType":5126,"count":2124,"max":[2,5.51148891448975,78.1254425048828],"min":[-2,-17.9556941986084,-6.74330806732178],"normalized":false,"type":"VEC3"},{"bufferView":1,"byteOffset":0,"componentType":5126,"count":2124,"max":[1,0.472376644611359,0.999928057193756,1],"min":[-1,-0.16413986682892,-0.00001525902189,1],"normalized":false,"type":"VEC4"},{"bufferView":2,"byteOffset":0,"componentType":5126,"count":2124,"max":[1,0.999928414821625,1],"min":[-1,-0.99992841482162,-1],"normalized":false,"type":"VEC3"},{"bufferView":3,"byteOffset":0,"componentType":5126,"count":2124,"max":[1,1],"min":[0,0],"normalized":false,"type":"VEC2"},{"bufferView":4,"byteOffset":0,"componentType":5123,"count":2124,"max":[2123],"min":[0],"normalized":false,"type":"SCALAR"}],"asset":{"generator":"Godot Engine v4.3.stable.official@77dcf97d82cbfe4e4615475fa52ca03da645dbd8","version":"2.0"},"bufferViews":[{"buffer":0,"byteLength":25488,"byteOffset":0,"byteStride":12,"target":34962},{"buffer":0,"byteLength":33984,"byteOffset":25488,"byteStride":16,"target":34962},{"buffer":0,"byteLength":25488,"byteOffset":59472,"byteStride":12,"target":34962},{"buffer":0,"byteLength":16992,"byteOffset":84960,"byteStride":8,"target":34962},{"buffer":0,"byteLength":4248,"byteOffset":101952,"target":34963}],"buffers":[{"byteLength":106200,"uri":"road_5_10.bin"}],"extensionsUsed":["GODOT_single_root"],"materials":[{"extensions":{},"pbrMetallicRoughness":{"baseColorFactor":[0.99999988079071,0.99999988079071,0.99999988079071,1],"metallicFactor":0,"roughnessFactor":1}}],"meshes":[{"extras":{"targetNames":[]},"primitives":[{"attributes":{"NORMAL":2,"POSITION":0,"TANGENT":1,"TEXCOORD_0":3},"indices":4,"material":0,"mode":4}]}],"nodes":[{"children":[1],"name":"Node3D"},{"children":[2],"name":"Terrain"},{"mesh":0,"name":"CSGPolygon3D2"}],"scene":0,"scenes":[{"nodes":[0]}]}