{"accessors":[{"bufferView":0,"byteOffset":0,"componentType":5126,"count":132,"max":[2,2,-0.84526473283768],"min":[-2,-20.1248931884766,-5],"normalized":false,"type":"VEC3"},{"bufferView":1,"byteOffset":0,"componentType":5126,"count":132,"max":[1,0,0.999548196792603,1],"min":[-1,-0.03005513548851,-0.00001525902189,1],"normalized":false,"type":"VEC4"},{"bufferView":2,"byteOffset":0,"componentType":5126,"count":132,"max":[1,0.999548256397247,1],"min":[-1,-0.99954926967621,-1],"normalized":false,"type":"VEC3"},{"bufferView":3,"byteOffset":0,"componentType":5126,"count":132,"max":[1,1],"min":[0,0],"normalized":false,"type":"VEC2"},{"bufferView":4,"byteOffset":0,"componentType":5123,"count":132,"max":[131],"min":[0],"normalized":false,"type":"SCALAR"}],"asset":{"generator":"Godot Engine v4.3.stable.official@77dcf97d82cbfe4e4615475fa52ca03da645dbd8","version":"2.0"},"bufferViews":[{"buffer":0,"byteLength":1584,"byteOffset":0,"byteStride":12,"target":34962},{"buffer":0,"byteLength":2112,"byteOffset":1584,"byteStride":16,"target":34962},{"buffer":0,"byteLength":1584,"byteOffset":3696,"byteStride":12,"target":34962},{"buffer":0,"byteLength":1056,"byteOffset":5280,"byteStride":8,"target":34962},{"buffer":0,"byteLength":264,"byteOffset":6336,"target":34963}],"buffers":[{"byteLength":6600,"uri":"wall0.bin"}],"extensionsUsed":["GODOT_single_root"],"materials":[{"extensions":{},"pbrMetallicRoughness":{"baseColorFactor":[0.99999988079071,0.99999988079071,0.99999988079071,1],"metallicFactor":0,"roughnessFactor":1}}],"meshes":[{"extras":{"targetNames":[]},"primitives":[{"attributes":{"NORMAL":2,"POSITION":0,"TANGENT":1,"TEXCOORD_0":3},"indices":4,"material":0,"mode":4}]}],"nodes":[{"children":[1],"name":"Node3D"},{"children":[2],"name":"Terrain","translation":[0.00269412994384766,8.78993225097656,1.31869912147522]},{"mesh":0,"name":"CSGPolygon3D2","translation":[0,8.44091987609863,0]}],"scene":0,"scenes":[{"nodes":[0]}]}