{"accessors":[{"bufferView":0,"byteOffset":0,"componentType":5126,"count":12444,"max":[2,43.9962997436523,347.813415527344],"min":[-2,-29.0193557739258,-25.7996234893799],"normalized":false,"type":"VEC3"},{"bufferView":1,"byteOffset":0,"componentType":5126,"count":12444,"max":[1,0.999987840652466,0.999991893768311,1],"min":[-1,-0.99998533725739,-0.21484512090683,1],"normalized":false,"type":"VEC4"},{"bufferView":2,"byteOffset":0,"componentType":5126,"count":12444,"max":[1,0.999991893768311,1],"min":[-1,-0.9999920129776,-1],"normalized":false,"type":"VEC3"},{"bufferView":3,"byteOffset":0,"componentType":5126,"count":12444,"max":[1,1],"min":[0,0],"normalized":false,"type":"VEC2"},{"bufferView":4,"byteOffset":0,"componentType":5123,"count":12444,"max":[12443],"min":[0],"normalized":false,"type":"SCALAR"}],"asset":{"generator":"Godot Engine v4.3.stable.official@77dcf97d82cbfe4e4615475fa52ca03da645dbd8","version":"2.0"},"bufferViews":[{"buffer":0,"byteLength":149328,"byteOffset":0,"byteStride":12,"target":34962},{"buffer":0,"byteLength":199104,"byteOffset":149328,"byteStride":16,"target":34962},{"buffer":0,"byteLength":149328,"byteOffset":348432,"byteStride":12,"target":34962},{"buffer":0,"byteLength":99552,"byteOffset":497760,"byteStride":8,"target":34962},{"buffer":0,"byteLength":24888,"byteOffset":597312,"target":34963}],"buffers":[{"byteLength":622200,"uri":"TestLevel0.bin"}],"extensionsUsed":["GODOT_single_root"],"materials":[{"extensions":{},"pbrMetallicRoughness":{"baseColorFactor":[0.99999988079071,0.99999988079071,0.99999988079071,1],"metallicFactor":0,"roughnessFactor":1}}],"meshes":[{"extras":{"targetNames":[]},"primitives":[{"attributes":{"NORMAL":2,"POSITION":0,"TANGENT":1,"TEXCOORD_0":3},"indices":4,"material":0,"mode":4}]}],"nodes":[{"children":[1],"name":"TestLevel"},{"children":[2],"name":"Terrain"},{"mesh":0,"name":"CSGPolygon3D2"}],"scene":0,"scenes":[{"nodes":[0]}]}