<?xml version="1.0" standalone="no"?>
<!DOCTYPE svg PUBLIC "-//W3C//DTD SVG 20010904//EN" "http://www.w3.org/TR/2001/REC-SVG-20010904/DTD/svg10.dtd">
<!-- Created using Krita: https://krita.org -->
<svg xmlns="http://www.w3.org/2000/svg" 
    xmlns:xlink="http://www.w3.org/1999/xlink"
    xmlns:krita="http://krita.org/namespaces/svg/krita"
    xmlns:sodipodi="http://sodipodi.sourceforge.net/DTD/sodipodi-0.dtd"
    width="1383.12pt"
    height="804.96pt"
    viewBox="0 0 1383.12 804.96">
<defs/>
<path id="shape0" transform="matrix(0.72 0 0 0.72 538.121924700451 707.997603224616)" fill="#2e8245" stroke-opacity="0" stroke="#000000" stroke-width="0" stroke-linecap="square" stroke-linejoin="bevel" d="M0.13 0.21C0.07 0.12 0.02 0.04 0 0C0.05 0.07 0.09 0.14 0.13 0.21Z" sodipodi:nodetypes="ccc"/><path id="shape1" transform="matrix(0.72 0 0 0.72 538.215524700451 708.141603224616)" fill="#2e8245" stroke-opacity="0" stroke="#000000" stroke-width="0" stroke-linecap="square" stroke-linejoin="bevel" d="M1.37 2.2C0.93 1.43 0.47 0.7 0 0C0.23 0.35 0.7 1.09 1.37 2.2Z" sodipodi:nodetypes="ccc"/><path id="shape2" transform="matrix(0.72 0 0 0.72 524.585924700451 733.028395506135)" fill="#2e8245" stroke-opacity="0" stroke="#000000" stroke-width="0" stroke-linecap="square" stroke-linejoin="bevel" d="M0 1.63501C0.03 1.38501 0.05 1.14501 0.06 0.935011C0.13 -0.574989 0.1 -0.194989 0 1.63501Z" sodipodi:nodetypes="ccc"/><path id="shape3" transform="matrix(0.72 0 0 0.72 666.901124700451 745.412395506135)" fill="#2e8245" stroke-opacity="0" stroke="#000000" stroke-width="0" stroke-linecap="square" stroke-linejoin="bevel" d="M0 1.63501C0.03 1.38501 0.05 1.14501 0.06 0.935011C0.13 -0.574989 0.1 -0.194989 0 1.63501Z" sodipodi:nodetypes="ccc"/><path id="shape4" transform="matrix(0.72 0 0 0.72 680.437124700451 720.374403224616)" fill="#2e8245" stroke-opacity="0" stroke="#000000" stroke-width="0" stroke-linecap="square" stroke-linejoin="bevel" d="M0.13 0.21C0.07 0.12 0.02 0.04 0 0C0.05 0.07 0.09 0.14 0.13 0.21Z" sodipodi:nodetypes="ccc"/><path id="shape5" transform="matrix(0.72 0 0 0.72 680.523524700451 720.525603224616)" fill="#2e8245" stroke-opacity="0" stroke="#000000" stroke-width="0" stroke-linecap="square" stroke-linejoin="bevel" d="M1.37 2.2C0.93 1.43 0.47 0.7 0 0C0.23 0.35 0.7 1.09 1.37 2.2Z" sodipodi:nodetypes="ccc"/><path id="shape6" transform="matrix(0.72 0 0 0.72 837.339524700451 708.141603224616)" fill="#2e8245" stroke-opacity="0" stroke="#000000" stroke-width="0" stroke-linecap="square" stroke-linejoin="bevel" d="M0 2.2C0.67 1.08 1.14 0.35 1.37 0C0.9 0.7 0.44 1.44 0 2.2Z" sodipodi:nodetypes="ccc"/><path id="shape7" transform="matrix(0.72 0 0 0.72 838.333124700451 707.997603224616)" fill="#2e8245" stroke-opacity="0" stroke="#000000" stroke-width="0" stroke-linecap="square" stroke-linejoin="bevel" d="M0 0.2C0.04 0.13 0.09 0.06 0.13 0C0.1 0.04 0.06 0.11 0 0.2Z" sodipodi:nodetypes="ccc"/><path id="shape8" transform="matrix(0.72 0 0 0.72 851.888024700451 733.035595506135)" fill="#2e8245" stroke-opacity="0" stroke="#000000" stroke-width="0" stroke-linecap="square" stroke-linejoin="bevel" d="M0.03375 0.935011C0.03375 1.14501 0.06375 1.37501 0.09375 1.63501C-0.00625 -0.194989 -0.02625 -0.574989 0.03375 0.935011Z" sodipodi:nodetypes="ccc"/><path id="shape9" transform="matrix(0.72 0 0 0.72 411.121124700451 720.525603224616)" fill="#2e8245" stroke-opacity="0" stroke="#000000" stroke-width="0" stroke-linecap="square" stroke-linejoin="bevel" d="M0 2.2C0.67 1.09 1.14 0.36 1.37 0C0.9 0.7 0.44 1.43 0 2.2Z" sodipodi:nodetypes="ccc"/><path id="shape10" transform="matrix(0.72 0 0 0.72 412.107524700451 720.374403224616)" fill="#2e8245" stroke-opacity="0" stroke="#000000" stroke-width="0" stroke-linecap="square" stroke-linejoin="bevel" d="M0 0.21C0.05 0.14 0.09 0.07 0.13 0C0.1 0.04 0.06 0.11 0 0.21Z" sodipodi:nodetypes="ccc"/><path id="shape11" transform="matrix(0.72 0 0 0.72 425.669624700451 745.412395506135)" fill="#2e8245" stroke-opacity="0" stroke="#000000" stroke-width="0" stroke-linecap="square" stroke-linejoin="bevel" d="M0.03375 0.935011C0.03375 1.14501 0.06375 1.37501 0.09375 1.63501C-0.00625 -0.194989 -0.02625 -0.574989 0.03375 0.935011Z" sodipodi:nodetypes="ccc"/><path id="shape12" transform="matrix(0.72 0 0 0.72 1105.83472470045 700.300803224615)" fill="#2e8245" stroke-opacity="0" stroke="#000000" stroke-width="0" stroke-linecap="square" stroke-linejoin="bevel" d="M0.13 0.2C0.07 0.11 0.03 0.04 0 0C0.04 0.06 0.09 0.13 0.13 0.2Z" sodipodi:nodetypes="ccc"/><path id="shape13" transform="matrix(0.72 0 0 0.72 1105.92832470045 700.452003224616)" fill="#2e8245" stroke-opacity="0" stroke="#000000" stroke-width="0" stroke-linecap="square" stroke-linejoin="bevel" d="M1.37 2.2C0.93 1.43 0.47 0.7 0 0C0.23 0.35 0.7 1.09 1.37 2.2Z" sodipodi:nodetypes="ccc"/><path id="shape14" transform="matrix(0.72 0 0 0.72 1092.30592470045 725.338795506135)" fill="#2e8245" stroke-opacity="0" stroke="#000000" stroke-width="0" stroke-linecap="square" stroke-linejoin="bevel" d="M0 1.63501C0.03 1.38501 0.05 1.14501 0.06 0.935011C0.13 -0.574989 0.1 -0.194989 0 1.63501Z" sodipodi:nodetypes="ccc"/><path id="shape15" transform="matrix(0.72 0 0 0.72 1234.61392470045 737.715595506134)" fill="#2e8245" stroke-opacity="0" stroke="#000000" stroke-width="0" stroke-linecap="square" stroke-linejoin="bevel" d="M0 1.63501C0.03 1.38501 0.05 1.14501 0.06 0.935011C0.12 -0.574989 0.1 -0.194989 0 1.63501Z" sodipodi:nodetypes="ccc"/><path id="shape16" transform="matrix(0.72 0 0 0.72 1248.24352470045 712.828803224616)" fill="#2e8245" stroke-opacity="0" stroke="#000000" stroke-width="0" stroke-linecap="square" stroke-linejoin="bevel" d="M1.37 2.2C0.93 1.43 0.47 0.7 0 0C0.23 0.35 0.7 1.09 1.37 2.2Z" sodipodi:nodetypes="ccc"/><path id="shape17" transform="matrix(0.72 0 0 0.72 1248.14992470045 712.684803224616)" fill="#2e8245" stroke-opacity="0" stroke="#000000" stroke-width="0" stroke-linecap="square" stroke-linejoin="bevel" d="M0.13 0.2C0.07 0.11 0.02 0.04 0 0C0.04 0.07 0.09 0.14 0.13 0.2Z" sodipodi:nodetypes="ccc"/><path id="shape18" transform="matrix(0.72 0 0 0.72 978.84112470045 712.828803224616)" fill="#2e8245" stroke-opacity="0" stroke="#000000" stroke-width="0" stroke-linecap="square" stroke-linejoin="bevel" d="M0 2.2C0.67 1.09 1.14 0.35 1.37 0C0.9 0.7 0.44 1.43 0 2.2Z" sodipodi:nodetypes="ccc"/><path id="shape19" transform="matrix(0.72 0 0 0.72 979.827524700451 712.684803224616)" fill="#2e8245" stroke-opacity="0" stroke="#000000" stroke-width="0" stroke-linecap="square" stroke-linejoin="bevel" d="M0 0.2C0.04 0.13 0.09 0.06 0.13 0C0.1 0.04 0.06 0.11 0 0.2Z" sodipodi:nodetypes="ccc"/><path id="shape20" transform="matrix(0.72 0 0 0.72 993.382424700451 737.722795506135)" fill="#2e8245" stroke-opacity="0" stroke="#000000" stroke-width="0" stroke-linecap="square" stroke-linejoin="bevel" d="M0.03375 0.935011C0.03375 1.14501 0.06375 1.37501 0.09375 1.63501C-0.00625 -0.194989 -0.02625 -0.574989 0.03375 0.935011Z" sodipodi:nodetypes="ccc"/><path id="shape21" transform="matrix(0.72 0 0 0.72 142.400024700451 726.843595506135)" fill="#2e8245" stroke-opacity="0" stroke="#000000" stroke-width="0" stroke-linecap="square" stroke-linejoin="bevel" d="M0.03375 0.935011C0.03375 1.14501 0.06375 1.37501 0.09375 1.63501C-0.00625 -0.194989 -0.02625 -0.574989 0.03375 0.935011Z" sodipodi:nodetypes="ccc"/><path id="shape22" transform="matrix(0.72 0 0 0.72 128.837924700451 701.805603224616)" fill="#2e8245" stroke-opacity="0" stroke="#000000" stroke-width="0" stroke-linecap="square" stroke-linejoin="bevel" d="M0 0.21C0.05 0.14 0.09 0.07 0.13 0C0.1 0.04 0.06 0.11 0 0.21Z" sodipodi:nodetypes="ccc"/><path id="shape23" transform="matrix(0.72 0 0 0.72 127.858724700451 701.956803224616)" fill="#2e8245" stroke-opacity="0" stroke="#000000" stroke-width="0" stroke-linecap="square" stroke-linejoin="bevel" d="M0 2.2C0.67 1.09 1.14 0.36 1.37 0C0.9 0.7 0.44 1.43 0 2.2Z" sodipodi:nodetypes="ccc"/><path id="shape24" transform="matrix(0.72 0 0 0.72 0.0920247004507645 739.227595506135)" fill="#2e8245" stroke-opacity="0" stroke="#000000" stroke-width="0" stroke-linecap="square" stroke-linejoin="bevel" d="M0.03375 0.935011C0.03375 1.14501 0.06375 1.37501 0.09375 1.63501C-0.00625 -0.194989 -0.02625 -0.574989 0.03375 0.935011Z" sodipodi:nodetypes="ccc"/><path id="shape25" transform="matrix(0.72 0 0 0.72 -13.4700752995491 714.182403224616)" fill="#2e8245" stroke-opacity="0" stroke="#000000" stroke-width="0" stroke-linecap="square" stroke-linejoin="bevel" d="M0 0.21C0.05 0.14 0.09 0.07 0.13 0C0.1 0.04 0.06 0.11 0 0.21Z" sodipodi:nodetypes="ccc"/><path id="shape26" transform="matrix(0.72 0 0 0.72 -14.4564752995491 714.333603224616)" fill="#2e8245" stroke-opacity="0" stroke="#000000" stroke-width="0" stroke-linecap="square" stroke-linejoin="bevel" d="M0 2.2C0.67 1.09 1.14 0.36 1.37 0C0.9 0.7 0.44 1.43 0 2.2Z" sodipodi:nodetypes="ccc"/><path id="shape27" transform="matrix(0.72 0 0 0.72 241.323524700451 749.451595506134)" fill="#2e8245" stroke-opacity="0" stroke="#000000" stroke-width="0" stroke-linecap="square" stroke-linejoin="bevel" d="M0 1.63501C0.03 1.38501 0.05 1.14501 0.06 0.935011C0.13 -0.574989 0.1 -0.194989 0 1.63501Z" sodipodi:nodetypes="ccc"/><path id="shape28" transform="matrix(0.72 0 0 0.72 254.945924700451 724.564803224616)" fill="#2e8245" stroke-opacity="0" stroke="#000000" stroke-width="0" stroke-linecap="square" stroke-linejoin="bevel" d="M1.37 2.2C0.93 1.43 0.47 0.7 0 0C0.23 0.35 0.7 1.09 1.37 2.2Z" sodipodi:nodetypes="ccc"/><path id="shape29" transform="matrix(0.72 0 0 0.72 254.852324700451 724.413603224615)" fill="#2e8245" stroke-opacity="0" stroke="#000000" stroke-width="0" stroke-linecap="square" stroke-linejoin="bevel" d="M0.13 0.21C0.07 0.12 0.02 0.04 0 0C0.05 0.07 0.09 0.14 0.13 0.21Z" sodipodi:nodetypes="ccc"/><path id="shape30" transform="matrix(0.72 0 0 0.72 1381.97632470045 752.162403224616)" fill="#2e8245" stroke-opacity="0" stroke="#000000" stroke-width="0" stroke-linecap="square" stroke-linejoin="bevel" d="M1.12 9.47C0.47 4.34 0 0 0 0L1.15 14.25C1.15 14.25 1.77 14.6 1.12 9.47Z" sodipodi:nodetypes="cccc"/><g id="group0" transform="matrix(0.72 0 0 0.72 -709.328475299548 -89.9999967753838)" fill="none">
  <path id="shape31" transform="translate(1998.13, 1207.91)" fill="#2e8245" stroke-opacity="0" stroke="#000000" stroke-width="0" stroke-linecap="square" stroke-linejoin="bevel" d="M8.24 35.06C6.35 16.48 4.06 0 4.06 0C4.06 0 2.39 16.15 0 35.06Z" sodipodi:nodetypes="cccc"/>
  <path id="shape32" transform="translate(2269.01, 1197.22)" fill="#2e8245" stroke-opacity="0" stroke="#000000" stroke-width="0" stroke-linecap="square" stroke-linejoin="bevel" d="M10.65 45.75C7.55 22.67 5.2 0 5.2 0C5.2 0 1.95 23.31 0 45.75L10.64 45.75Z" sodipodi:nodetypes="ccccc"/>
  <path id="shape33" transform="translate(2243.53, 1170.57)" fill="#2e8245" stroke-opacity="0" stroke="#000000" stroke-width="0" stroke-linecap="square" stroke-linejoin="bevel" d="M4.45 72.4C7.06 43.43 9.29 6.7 4.61 0C4.61 0 4.16 39.56 0 72.4Z" sodipodi:nodetypes="cccc"/>
  <path id="shape34" transform="translate(2221.72, 1156.69)" fill="#2e8245" stroke-opacity="0" stroke="#000000" stroke-width="0" stroke-linecap="square" stroke-linejoin="bevel" d="M14.73 86.28C6 50.23 0 0 0 0L5.43 86.28Z" sodipodi:nodetypes="cccc"/>
  <path id="shape35" transform="translate(2310.28, 1141.24)" fill="#2e8245" stroke-opacity="0" stroke="#000000" stroke-width="0" stroke-linecap="square" stroke-linejoin="bevel" d="M0.01 101.73L23.69 101.73C20.9 67.4 22.07 21.39 34.39 0C28.62 9.56 8.05 46.66 0 101.73Z" sodipodi:nodetypes="ccccc"/>
  <path id="shape36" transform="translate(2418.24, 1163.2)" fill="#2e8245" stroke-opacity="0" stroke="#000000" stroke-width="0" stroke-linecap="square" stroke-linejoin="bevel" d="M13.22 79.77C5.32 44.48 0 0 0 0L5.02 79.77Z" sodipodi:nodetypes="cccc"/>
  <path id="shape37" transform="translate(2382.75, 1153.45)" fill="#2e8245" stroke-opacity="0" stroke="#000000" stroke-width="0" stroke-linecap="square" stroke-linejoin="bevel" d="M31.16 89.52C19.84 52.16 3.93 1.77 0 0C0 0 14.83 51.24 23.92 89.52Z" sodipodi:nodetypes="cccc"/>
  <path id="shape38" transform="translate(2346.63, 1205.86)" fill="#2e8245" stroke-opacity="0" stroke="#000000" stroke-width="0" stroke-linecap="square" stroke-linejoin="bevel" d="M9.47 37.11C5.17 22.8 1.26 8.5 0 0C0.3 8.25 0.67 22.91 0.77 37.11Z" sodipodi:nodetypes="cccc"/>
  <path id="shape39" transform="translate(2186.22, 1146.94)" fill="#2e8245" stroke-opacity="0" stroke="#000000" stroke-width="0" stroke-linecap="square" stroke-linejoin="bevel" d="M33.13 96.03C21.77 58.33 4.16 1.87 0 0C0 0 16.6 57.35 25.44 96.03Z" sodipodi:nodetypes="cccc"/>
  <path id="shape40" transform="translate(2364.97, 1175.24)" fill="#2e8245" stroke-opacity="0" stroke="#000000" stroke-width="0" stroke-linecap="square" stroke-linejoin="bevel" d="M25.02 67.73C13.12 40.49 0.99 8.28 0 0C0.4 7.5 2 39.67 3.39 67.73L25.01 67.73Z" sodipodi:nodetypes="ccccc"/>
  <path id="shape41" transform="translate(2254.08, 1230.79)" fill="#2e8245" stroke-opacity="0" stroke="#000000" stroke-width="0" stroke-linecap="square" stroke-linejoin="bevel" d="M3.2 12.18C2.02 7.42 1.06 3.14 0.57 0C0.45 3.13 0.23 7.4 0 12.18Z" sodipodi:nodetypes="cccc"/>
  <path id="shape42" transform="translate(2046.11, 1164.06)" fill="#2e8245" stroke-opacity="0" stroke="#000000" stroke-width="0" stroke-linecap="square" stroke-linejoin="bevel" d="M4.74 78.91C7.58 49.25 10.55 7.21 5.5 0C5.5 0 4.98 45.05 0 78.91L4.73 78.91Z" sodipodi:nodetypes="ccccc"/>
  <path id="shape43" transform="translate(2431.46, 1146.01)" fill="#2e8245" stroke-opacity="0" stroke="#000000" stroke-width="0" stroke-linecap="square" stroke-linejoin="bevel" d="M11.44 96.96L17.54 0C17.54 0 10.23 61.18 0 96.96L11.43 96.96Z" sodipodi:nodetypes="ccccc"/>
  <path id="shape44" transform="translate(2057.26, 1224.28)" fill="#2e8245" stroke-opacity="0" stroke="#000000" stroke-width="0" stroke-linecap="square" stroke-linejoin="bevel" d="M5.17 18.69C3.23 11.39 1.57 4.52 0.86 0C0.68 4.5 0.31 11.33 0 18.69L5.18 18.69Z" sodipodi:nodetypes="ccccc"/>
  <path id="shape45" transform="translate(2021.5, 1241.47)" fill="#2e8245" stroke-opacity="0" stroke="#000000" stroke-width="0" stroke-linecap="square" stroke-linejoin="bevel" d="M0.32 1.5C0.3 0.98 0.28 0.48 0.26 0C0.19 0.47 0.1 0.98 0 1.5Z" sodipodi:nodetypes="cccc"/>
  <path id="shape46" transform="translate(2025.5440801752, 1181.26)" fill="#2e8245" stroke-opacity="0" stroke="#000000" stroke-width="0" stroke-linecap="square" stroke-linejoin="bevel" d="M6.12592 61.71C3.08592 31.57 2.72592 0 2.72592 0C-1.39408 5.89 -0.16408 35.05 1.97592 61.71Z" sodipodi:nodetypes="cccc"/>
  <path id="shape47" transform="translate(2168.45, 1168.73)" fill="#2e8245" stroke-opacity="0" stroke="#000000" stroke-width="0" stroke-linecap="square" stroke-linejoin="bevel" d="M27.9 74.24C15.16 45.87 1.07 8.95 0 0C0.43 8.09 2.26 44.87 3.72 74.24Z" sodipodi:nodetypes="cccc"/>
  <path id="shape48" transform="translate(2112.89, 1134.73)" fill="#2e8245" stroke-opacity="0" stroke="#000000" stroke-width="0" stroke-linecap="square" stroke-linejoin="bevel" d="M0.01 108.24L25.15 108.24C21.66 73.46 22.14 22.77 35.26 0C29.26 9.93 7.3 49.59 0 108.24Z" sodipodi:nodetypes="ccccc"/>
  <path id="shape49" transform="translate(2150.1, 1199.35)" fill="#2e8245" stroke-opacity="0" stroke="#000000" stroke-width="0" stroke-linecap="square" stroke-linejoin="bevel" d="M0.8 43.62L11.45 43.62C6.41 27.29 1.45 9.79 0 0C0.35 9.53 0.79 27.58 0.8 43.62Z" sodipodi:nodetypes="cccc"/>
  <path id="shape50" transform="translate(2071.97, 1190.71)" fill="#2e8245" stroke-opacity="0" stroke="#000000" stroke-width="0" stroke-linecap="square" stroke-linejoin="bevel" d="M12.06 52.26C8.52 27.13 5.72 0 5.72 0C5.72 0 1.81 28.07 0 52.26L12.07 52.26Z" sodipodi:nodetypes="ccccc"/>
  <path id="shape51" transform="translate(2085.06, 1154.99)" fill="#2e8245" stroke-opacity="0" stroke="#000000" stroke-width="0" stroke-linecap="square" stroke-linejoin="bevel" d="M20.57 87.98C15.21 55.05 6.56 7.65 0 0C0 0 7.73 49.67 10.47 87.98Z" sodipodi:nodetypes="cccc"/>
  <path id="shape52" transform="translate(2281.58, 1161.5)" fill="#2e8245" stroke-opacity="0" stroke="#000000" stroke-width="0" stroke-linecap="square" stroke-linejoin="bevel" d="M19.5 81.47C14.11 49.12 6.14 7.16 0 0C0 0 6.89 44.28 9.97 81.47Z" sodipodi:nodetypes="cccc"/>
  <path id="shape53" transform="translate(2785.23, 1197.22)" fill="#2e8245" stroke-opacity="0" stroke="#000000" stroke-width="0" stroke-linecap="square" stroke-linejoin="bevel" d="M10.65 45.75C8.7 23.31 5.45 0 5.45 0C5.45 0 3.1 22.67 0 45.75L10.64 45.75Z" sodipodi:nodetypes="ccccc"/>
  <path id="shape54" transform="translate(2807.62, 1230.79)" fill="#2e8245" stroke-opacity="0" stroke="#000000" stroke-width="0" stroke-linecap="square" stroke-linejoin="bevel" d="M3.2 12.18C2.97 7.4 2.75 3.13 2.63 0C2.13 3.14 1.18 7.42 0 12.18Z" sodipodi:nodetypes="cccc"/>
  <path id="shape55" transform="translate(2720.21, 1141.24)" fill="#2e8245" stroke-opacity="0" stroke="#000000" stroke-width="0" stroke-linecap="square" stroke-linejoin="bevel" d="M10.71 101.73L34.39 101.73C26.35 46.66 5.78 9.56 0 0C12.32 21.39 13.49 67.4 10.7 101.73Z" sodipodi:nodetypes="ccccc"/>
  <path id="shape56" transform="translate(2708.79, 1205.86)" fill="#2e8245" stroke-opacity="0" stroke="#000000" stroke-width="0" stroke-linecap="square" stroke-linejoin="bevel" d="M8.7 37.11C8.8 22.91 9.17 8.25 9.47 0C8.21 8.5 4.31 22.8 0 37.11Z" sodipodi:nodetypes="cccc"/>
  <path id="shape57" transform="translate(2763.82, 1161.5)" fill="#2e8245" stroke-opacity="0" stroke="#000000" stroke-width="0" stroke-linecap="square" stroke-linejoin="bevel" d="M9.53 81.47C12.61 44.28 19.5 0 19.5 0C13.37 7.16 5.39 49.12 0 81.47Z" sodipodi:nodetypes="cccc"/>
  <path id="shape58" transform="translate(2448.16, 1136.25)" fill="#2e8245" stroke-opacity="0" stroke="#000000" stroke-width="0" stroke-linecap="square" stroke-linejoin="bevel" d="M8.55 106.72C16.35 69.05 36.33 0 36.33 0C31.76 2.06 10.9 70.17 0 106.72Z" sodipodi:nodetypes="cccc"/>
  <path id="shape59" transform="translate(2898.6952398608, 1194.87)" fill="#2e8245" stroke-opacity="0" stroke="#000000" stroke-width="0" stroke-linecap="square" stroke-linejoin="bevel" d="M5.07476 48.1L2.08476 0C-0.45524 12 -0.0952399 30.67 0.22476 48.1Z" sodipodi:nodetypes="cccc"/>
  <path id="shape60" transform="translate(2873.56, 1144.31)" fill="#2e8245" stroke-opacity="0" stroke="#000000" stroke-width="0" stroke-linecap="square" stroke-linejoin="bevel" d="M22.27 98.66C17.22 66.44 7.3 8.52 0 0C0 0 9.28 59.68 11.11 98.66Z" sodipodi:nodetypes="cccc"/>
  <path id="shape61" transform="translate(2832.79, 1153.38)" fill="#2e8245" stroke-opacity="0" stroke="#000000" stroke-width="0" stroke-linecap="square" stroke-linejoin="bevel" d="M5.48 89.59C8.49 60.57 13 8.13 7.31 0C7.31 0 6.68 55.5 0 89.59Z" sodipodi:nodetypes="cccc"/>
  <path id="shape62" transform="translate(2845.38, 1213.59)" fill="#2e8245" stroke-opacity="0" stroke="#000000" stroke-width="0" stroke-linecap="square" stroke-linejoin="bevel" d="M8.5 29.38C5.43 18.6 2.3 6.71 1.24 0C0.98 6.64 0.29 18.37 0 29.38Z" sodipodi:nodetypes="cccc"/>
  <path id="shape63" transform="translate(2859.79, 1180.02)" fill="#2e8245" stroke-opacity="0" stroke="#000000" stroke-width="0" stroke-linecap="square" stroke-linejoin="bevel" d="M14.31 62.95C10.07 35.55 6.39 0 6.39 0C6.39 0 1.19 37.29 0 62.95Z" sodipodi:nodetypes="cccc"/>
  <path id="shape64" transform="translate(2814.0287171326, 1170.57)" fill="#2e8245" stroke-opacity="0" stroke="#000000" stroke-width="0" stroke-linecap="square" stroke-linejoin="bevel" d="M7.34128 72.4C3.18128 39.56 2.73128 0 2.73128 0C-1.95872 6.7 0.271283 43.43 2.89128 72.4Z" sodipodi:nodetypes="cccc"/>
  <path id="shape65" transform="translate(2585.11, 1180.02)" fill="#2e8245" stroke-opacity="0" stroke="#000000" stroke-width="0" stroke-linecap="square" stroke-linejoin="bevel" d="M14.31 62.95C13.12 37.3 7.92 0 7.92 0C7.92 0 4.24 35.55 0 62.95Z" sodipodi:nodetypes="cccc"/>
  <path id="shape66" transform="translate(2522.56, 1124.04)" fill="#2e8245" stroke-opacity="0" stroke="#000000" stroke-width="0" stroke-linecap="square" stroke-linejoin="bevel" d="M8.85 118.93L36.41 118.93C30.65 54.42 6.35 10.53 0 0C14.54 25.24 13.55 84.78 8.85 118.93Z" sodipodi:nodetypes="cccc"/>
  <path id="shape67" transform="translate(2563.39, 1144.31)" fill="#2e8245" stroke-opacity="0" stroke="#000000" stroke-width="0" stroke-linecap="square" stroke-linejoin="bevel" d="M11.16 98.66C12.99 59.68 22.27 0 22.27 0C14.96 8.52 5.04 66.44 0 98.66Z" sodipodi:nodetypes="cccc"/>
  <path id="shape68" transform="translate(2505.81, 1188.66)" fill="#2e8245" stroke-opacity="0" stroke="#000000" stroke-width="0" stroke-linecap="square" stroke-linejoin="bevel" d="M0 54.31L14.08 54.31C13.81 36.41 14.37 11.73 14.81 0C13.03 11.99 6 35.51 0.01 54.31Z" sodipodi:nodetypes="ccccc"/>
  <path id="shape69" transform="translate(2469.44, 1158.04)" fill="#2e8245" stroke-opacity="0" stroke="#000000" stroke-width="0" stroke-linecap="square" stroke-linejoin="bevel" d="M28.58 84.93C30.08 54.61 32.34 9.11 32.83 0C31.62 10.13 13.73 56.08 0 84.93Z" sodipodi:nodetypes="cccc"/>
  <path id="shape70" transform="translate(2605.34, 1213.59)" fill="#2e8245" stroke-opacity="0" stroke="#000000" stroke-width="0" stroke-linecap="square" stroke-linejoin="bevel" d="M8.5 29.38C8.22 18.38 7.52 6.64 7.26 0C6.2 6.71 3.07 18.6 0 29.38Z" sodipodi:nodetypes="cccc"/>
  <path id="shape71" transform="translate(2633.44, 1163.2)" fill="#2e8245" stroke-opacity="0" stroke="#000000" stroke-width="0" stroke-linecap="square" stroke-linejoin="bevel" d="M8.2 79.77L13.22 0C13.22 0 7.91 44.48 0 79.77Z" sodipodi:nodetypes="cccc"/>
  <path id="shape72" transform="translate(2650.98, 1153.45)" fill="#2e8245" stroke-opacity="0" stroke="#000000" stroke-width="0" stroke-linecap="square" stroke-linejoin="bevel" d="M7.24 89.52C16.33 51.24 31.16 0 31.16 0C27.23 1.77 11.33 52.16 0 89.52Z" sodipodi:nodetypes="cccc"/>
  <path id="shape73" transform="translate(2616.37232806301, 1153.38)" fill="#2e8245" stroke-opacity="0" stroke="#000000" stroke-width="0" stroke-linecap="square" stroke-linejoin="bevel" d="M10.0377 89.59C3.36767 55.5 2.72767 0 2.72767 0C-2.96233 8.13 1.54767 60.57 4.55767 89.59Z" sodipodi:nodetypes="cccc"/>
  <path id="shape74" transform="translate(2674.9, 1175.24)" fill="#2e8245" stroke-opacity="0" stroke="#000000" stroke-width="0" stroke-linecap="square" stroke-linejoin="bevel" d="M21.63 67.73C23.02 39.67 24.62 7.5 25.02 0C24.03 8.28 11.9 40.49 0 67.73L21.62 67.73Z" sodipodi:nodetypes="ccccc"/>
  <path id="shape75" transform="translate(1923.43, 1216.55)" fill="#2e8245" stroke-opacity="0" stroke="#000000" stroke-width="0" stroke-linecap="square" stroke-linejoin="bevel" d="M5.69 26.42C5.85 15.94 6.11 6.17 6.34 0C5.4 6.36 2.97 15.99 0 26.42L5.68 26.42Z" sodipodi:nodetypes="ccccc"/>
  <path id="shape76" transform="translate(1302.23, 1191.53)" fill="#2e8245" stroke-opacity="0" stroke="#000000" stroke-width="0" stroke-linecap="square" stroke-linejoin="bevel" d="M15.53 51.44C16.68 28.31 17.79 6.08 18.12 0C17.32 6.66 9.31 28.83 0 51.44Z" sodipodi:nodetypes="cccc"/>
  <path id="shape77" transform="translate(1333.9, 1222.16)" fill="#2e8245" stroke-opacity="0" stroke="#000000" stroke-width="0" stroke-linecap="square" stroke-linejoin="bevel" d="M4.23 20.81C4.39 12.52 4.6 5.05 4.78 0C4.01 5.2 2.24 12.59 0 20.81L4.22 20.81Z" sodipodi:nodetypes="ccccc"/>
  <path id="shape78" transform="translate(1276.39, 1169.75)" fill="#2e8245" stroke-opacity="0" stroke="#000000" stroke-width="0" stroke-linecap="square" stroke-linejoin="bevel" d="M6.27 73.22C15.14 38.16 26.18 0 26.18 0C22.8 1.52 10.57 39 0 73.22L6.26 73.22Z" sodipodi:nodetypes="ccccc"/>
  <path id="shape79" transform="translate(1236.32, 1148.1)" fill="#2e8245" stroke-opacity="0" stroke="#000000" stroke-width="0" stroke-linecap="square" stroke-linejoin="bevel" d="M16.95 94.87C7.03 58.85 0 0 0 0L5.97 94.87Z" sodipodi:nodetypes="cccc"/>
  <path id="shape80" transform="translate(1257.23, 1179.5)" fill="#2e8245" stroke-opacity="0" stroke="#000000" stroke-width="0" stroke-linecap="square" stroke-linejoin="bevel" d="M5.86 63.47L9.85 0C9.85 0 6.01 32.15 0 63.47Z" sodipodi:nodetypes="cccc"/>
  <path id="shape81" transform="translate(1340.64, 1157.54)" fill="#2e8245" stroke-opacity="0" stroke="#000000" stroke-width="0" stroke-linecap="square" stroke-linejoin="bevel" d="M11.67 85.43L31.55 85.43C22.29 39.37 5.18 8.58 0 0C10.46 18.15 12.88 54.01 11.67 85.43Z" sodipodi:nodetypes="cccc"/>
  <path id="shape82" transform="translate(1456.24, 1181.26)" fill="#2e8245" stroke-opacity="0" stroke="#000000" stroke-width="0" stroke-linecap="square" stroke-linejoin="bevel" d="M4.15 61.71C6.29 35.05 7.52 5.89 3.4 0C3.4 0 3.04 31.57 0 61.71Z" sodipodi:nodetypes="cccc"/>
  <path id="shape83" transform="translate(1434.45872559705, 1186.87)" fill="#2e8245" stroke-opacity="0" stroke="#000000" stroke-width="0" stroke-linecap="square" stroke-linejoin="bevel" d="M5.59127 56.1C3.04127 27.78 2.73127 0 2.73127 0C-1.10873 5.48 -0.308726 31.1 1.54127 56.1Z" sodipodi:nodetypes="cccc"/>
  <path id="shape84" transform="translate(1200.82, 1138.34)" fill="#2e8245" stroke-opacity="0" stroke="#000000" stroke-width="0" stroke-linecap="square" stroke-linejoin="bevel" d="M35.71 104.63C24.66 67.65 4.49 2.02 0 0C0 0 19.26 66.56 27.34 104.63Z" sodipodi:nodetypes="cccc"/>
  <path id="shape85" transform="translate(1387.05, 1177.8)" fill="#2e8245" stroke-opacity="0" stroke="#000000" stroke-width="0" stroke-linecap="square" stroke-linejoin="bevel" d="M8.25 65.17C11.64 32.48 16.69 0 16.69 0C11.55 6 5.12 36.43 0 65.17Z" sodipodi:nodetypes="cccc"/>
  <path id="shape86" transform="translate(1407.74, 1213.51)" fill="#2e8245" stroke-opacity="0" stroke="#000000" stroke-width="0" stroke-linecap="square" stroke-linejoin="bevel" d="M6.96 29.46C5.21 13.29 3.36 0 3.36 0C3.36 0 2.01 13.06 0 29.46Z" sodipodi:nodetypes="cccc"/>
  <path id="shape87" transform="translate(1059.3, 1155.47)" fill="#2e8245" stroke-opacity="0" stroke="#000000" stroke-width="0" stroke-linecap="square" stroke-linejoin="bevel" d="M5.3 87.5C8.3 58.12 12.47 7.94 6.91 0C6.91 0 6.3 53.28 0 87.5L5.29 87.5Z" sodipodi:nodetypes="ccccc"/>
  <path id="shape88" transform="translate(1038.67, 1165.29)" fill="#2e8245" stroke-opacity="0" stroke="#000000" stroke-width="0" stroke-linecap="square" stroke-linejoin="bevel" d="M12.75 77.68C5.1 42.75 0 0 0 0L4.89 77.68L12.76 77.68Z" sodipodi:nodetypes="ccccc"/>
  <path id="shape89" transform="translate(1003.18, 1155.54)" fill="#2e8245" stroke-opacity="0" stroke="#000000" stroke-width="0" stroke-linecap="square" stroke-linejoin="bevel" d="M30.52 87.43C19.24 50.31 3.85 1.73 0 0C0 0 14.3 49.4 23.42 87.43Z" sodipodi:nodetypes="cccc"/>
  <path id="shape90" transform="translate(1183.06, 1160.13)" fill="#2e8245" stroke-opacity="0" stroke="#000000" stroke-width="0" stroke-linecap="square" stroke-linejoin="bevel" d="M31.84 82.84C18.26 53.91 1.18 9.89 0 0C0.48 8.9 2.64 52.56 4.14 82.84Z" sodipodi:nodetypes="cccc"/>
  <path id="shape91" transform="translate(985.71, 1179.13)" fill="#2e8245" stroke-opacity="0" stroke="#000000" stroke-width="0" stroke-linecap="square" stroke-linejoin="bevel" d="M23.8 63.84C12.94 38.76 2.12 10.16 0 0L0 4.18C0.62 16.37 1.86 41.19 2.98 63.84Z" sodipodi:nodetypes="ccccc"/>
  <path id="shape92" transform="translate(1071.55, 1215.68)" fill="#2e8245" stroke-opacity="0" stroke="#000000" stroke-width="0" stroke-linecap="square" stroke-linejoin="bevel" d="M7.85 27.29C4.98 17.09 2.17 6.28 1.18 0C0.93 6.22 0.31 16.92 0 27.29Z" sodipodi:nodetypes="cccc"/>
  <path id="shape93" transform="translate(1164.71, 1190.75)" fill="#2e8245" stroke-opacity="0" stroke="#000000" stroke-width="0" stroke-linecap="square" stroke-linejoin="bevel" d="M0.75 52.22L14.14 52.22C8.3 33.8 1.71 11.55 0 0C0.41 11.28 0.95 34.53 0.75 52.22Z" sodipodi:nodetypes="cccc"/>
  <path id="shape94" transform="translate(1126.54, 1126.13)" fill="#2e8245" stroke-opacity="0" stroke="#000000" stroke-width="0" stroke-linecap="square" stroke-linejoin="bevel" d="M0 116.84L27.09 116.84C22.63 82.4 21.97 24.74 36.22 0C29.94 10.41 6.09 53.47 0 116.84Z" sodipodi:nodetypes="cccc"/>
  <path id="shape95" transform="translate(1086.01, 1182.11)" fill="#2e8245" stroke-opacity="0" stroke="#000000" stroke-width="0" stroke-linecap="square" stroke-linejoin="bevel" d="M13.88 60.86C9.78 33.78 6.28 0 6.28 0C6.28 0 1.36 35.32 0 60.86Z" sodipodi:nodetypes="cccc"/>
  <path id="shape96" transform="translate(1099.66, 1146.4)" fill="#2e8245" stroke-opacity="0" stroke="#000000" stroke-width="0" stroke-linecap="square" stroke-linejoin="bevel" d="M21.95 96.57C16.81 64 7.16 8.34 0 0C0 0 8.96 57.59 11.01 96.57Z" sodipodi:nodetypes="cccc"/>
  <path id="shape97" transform="translate(1977.14, 1172.19)" fill="#2e8245" stroke-opacity="0" stroke="#000000" stroke-width="0" stroke-linecap="square" stroke-linejoin="bevel" d="M8.68 70.78C12.03 36.31 17.68 0 17.68 0C12.21 6.39 5.26 40.52 0 70.78Z" sodipodi:nodetypes="cccc"/>
  <path id="shape98" transform="translate(1720.67, 1199.35)" fill="#2e8245" stroke-opacity="0" stroke="#000000" stroke-width="0" stroke-linecap="square" stroke-linejoin="bevel" d="M0 43.62L10.65 43.62C10.65 27.58 11.1 9.53 11.45 0C10 9.79 5.04 27.29 0 43.62Z" sodipodi:nodetypes="cccc"/>
  <path id="shape99" transform="translate(1827.88021251983, 1164.06)" fill="#2e8245" stroke-opacity="0" stroke="#000000" stroke-width="0" stroke-linecap="square" stroke-linejoin="bevel" d="M8.22979 78.91C3.24979 45.05 2.72979 0 2.72979 0C-2.32021 7.21 0.659787 49.24 3.48979 78.91L8.21979 78.91Z" sodipodi:nodetypes="ccccc"/>
  <path id="shape100" transform="translate(1798.19, 1190.71)" fill="#2e8245" stroke-opacity="0" stroke="#000000" stroke-width="0" stroke-linecap="square" stroke-linejoin="bevel" d="M12.07 52.26C10.26 28.07 6.35 0 6.35 0C6.35 0 3.54 27.13 0 52.26Z" sodipodi:nodetypes="cccc"/>
  <path id="shape101" transform="translate(1734.06, 1134.73)" fill="#2e8245" stroke-opacity="0" stroke="#000000" stroke-width="0" stroke-linecap="square" stroke-linejoin="bevel" d="M10.12 108.24L35.26 108.24C27.96 49.59 6 9.93 0 0C13.12 22.77 13.6 73.46 10.11 108.24Z" sodipodi:nodetypes="ccccc"/>
  <path id="shape102" transform="translate(1776.59, 1154.99)" fill="#2e8245" stroke-opacity="0" stroke="#000000" stroke-width="0" stroke-linecap="square" stroke-linejoin="bevel" d="M10.1 87.98C12.85 49.67 20.57 0 20.57 0C14.02 7.65 5.36 55.04 0 87.98Z" sodipodi:nodetypes="cccc"/>
  <path id="shape103" transform="translate(1819.8, 1224.28)" fill="#2e8245" stroke-opacity="0" stroke="#000000" stroke-width="0" stroke-linecap="square" stroke-linejoin="bevel" d="M5.17 18.69C4.86 11.33 4.48 4.49 4.31 0C3.59 4.52 1.94 11.39 0 18.69L5.18 18.69Z" sodipodi:nodetypes="ccccc"/>
  <path id="shape104" transform="translate(1847.22, 1173.89)" fill="#2e8245" stroke-opacity="0" stroke="#000000" stroke-width="0" stroke-linecap="square" stroke-linejoin="bevel" d="M6.6 69.08L10.95 0C10.95 0 6.63 36.12 0 69.08Z" sodipodi:nodetypes="cccc"/>
  <path id="shape105" transform="translate(1931.72, 1151.93)" fill="#2e8245" stroke-opacity="0" stroke="#000000" stroke-width="0" stroke-linecap="square" stroke-linejoin="bevel" d="M11.42 91.04L32.63 91.04C23.68 41.88 5.39 8.92 0 0C11.08 19.23 13.14 58.38 11.41 91.04Z" sodipodi:nodetypes="ccccc"/>
  <path id="shape106" transform="translate(1466.09, 1241.47)" fill="#2e8245" stroke-opacity="0" stroke="#000000" stroke-width="0" stroke-linecap="square" stroke-linejoin="bevel" d="M0.32 1.5C0.23 0.98 0.14 0.48 0.06 0C0.04 0.47 0.02 0.98 0 1.5Z" sodipodi:nodetypes="cccc"/>
  <path id="shape107" transform="translate(1865.75, 1164.14)" fill="#2e8245" stroke-opacity="0" stroke="#000000" stroke-width="0" stroke-linecap="square" stroke-linejoin="bevel" d="M6.58 78.83C15.64 42.37 27.9 0 27.9 0C24.34 1.6 10.92 43.23 0 78.83Z" sodipodi:nodetypes="cccc"/>
  <path id="shape108" transform="translate(1890.97, 1185.93)" fill="#2e8245" stroke-opacity="0" stroke="#000000" stroke-width="0" stroke-linecap="square" stroke-linejoin="bevel" d="M17.59 57.04C18.83 31.99 20.1 6.56 20.45 0C19.59 7.22 10.26 32.61 0 57.04L17.58 57.04Z" sodipodi:nodetypes="ccccc"/>
  <path id="shape109" transform="translate(1558.13, 1216.55)" fill="#2e8245" stroke-opacity="0" stroke="#000000" stroke-width="0" stroke-linecap="square" stroke-linejoin="bevel" d="M6.34 26.42C3.37 15.98 0.95 6.36 0 0C0.23 6.18 0.49 15.94 0.65 26.42L6.33 26.42Z" sodipodi:nodetypes="ccccc"/>
  <path id="shape110" transform="translate(1523.55, 1151.93)" fill="#2e8245" stroke-opacity="0" stroke="#000000" stroke-width="0" stroke-linecap="square" stroke-linejoin="bevel" d="M0.01 91.04L21.22 91.04C19.49 58.38 21.55 19.23 32.63 0C27.24 8.93 8.95 41.88 0 91.04Z" sodipodi:nodetypes="ccccc"/>
  <path id="shape111" transform="translate(1493.09, 1172.19)" fill="#2e8245" stroke-opacity="0" stroke="#000000" stroke-width="0" stroke-linecap="square" stroke-linejoin="bevel" d="M17.68 70.78C12.42 40.52 5.48 6.39 0 0C0 0 5.65 36.31 9 70.78Z" sodipodi:nodetypes="cccc"/>
  <path id="shape112" transform="translate(1481.54, 1207.91)" fill="#2e8245" stroke-opacity="0" stroke="#000000" stroke-width="0" stroke-linecap="square" stroke-linejoin="bevel" d="M8.24 35.06C5.85 16.15 4.18 0 4.18 0C4.18 0 1.88 16.48 0 35.06Z" sodipodi:nodetypes="cccc"/>
  <path id="shape113" transform="translate(1576.48, 1185.93)" fill="#2e8245" stroke-opacity="0" stroke="#000000" stroke-width="0" stroke-linecap="square" stroke-linejoin="bevel" d="M20.45 57.04C10.19 32.6 0.87 7.21 0 0C0.35 6.56 1.62 32 2.86 57.04L20.44 57.04Z" sodipodi:nodetypes="ccccc"/>
  <path id="shape114" transform="translate(1662.87, 1146.94)" fill="#2e8245" stroke-opacity="0" stroke="#000000" stroke-width="0" stroke-linecap="square" stroke-linejoin="bevel" d="M7.69 96.03C16.54 57.35 33.13 0 33.13 0C28.97 1.87 11.36 58.33 0 96.03Z" sodipodi:nodetypes="cccc"/>
  <path id="shape115" transform="translate(1685.88, 1168.73)" fill="#2e8245" stroke-opacity="0" stroke="#000000" stroke-width="0" stroke-linecap="square" stroke-linejoin="bevel" d="M24.18 74.24C25.64 44.87 27.46 8.09 27.9 0C26.83 8.95 12.74 45.87 0 74.24Z" sodipodi:nodetypes="cccc"/>
  <path id="shape116" transform="translate(1645.78, 1156.69)" fill="#2e8245" stroke-opacity="0" stroke="#000000" stroke-width="0" stroke-linecap="square" stroke-linejoin="bevel" d="M9.3 86.28L14.73 0C14.73 0 8.73 50.23 0 86.28Z" sodipodi:nodetypes="cccc"/>
  <path id="shape117" transform="translate(1594.26, 1164.14)" fill="#2e8245" stroke-opacity="0" stroke="#000000" stroke-width="0" stroke-linecap="square" stroke-linejoin="bevel" d="M27.9 78.83C16.98 43.22 3.56 1.6 0 0C0 0 12.26 42.37 21.32 78.83Z" sodipodi:nodetypes="cccc"/>
  <path id="shape118" transform="translate(1629.75, 1173.89)" fill="#2e8245" stroke-opacity="0" stroke="#000000" stroke-width="0" stroke-linecap="square" stroke-linejoin="bevel" d="M10.95 69.08C4.31 36.12 0 0 0 0L4.35 69.08Z" sodipodi:nodetypes="cccc"/>
 </g>
</svg>
